<svg xmlns="http://www.w3.org/2000/svg" xmlns:xlink="http://www.w3.org/1999/xlink" viewBox="0 0 1920 1080"><defs><style>.cls-1{fill:url(#Unbenannter_Verlauf_45);}.cls-2,.cls-3,.cls-4{fill:#4f5b6b;}.cls-2{stroke:#b5cce5;opacity:0.3;}.cls-10,.cls-11,.cls-12,.cls-13,.cls-14,.cls-15,.cls-16,.cls-17,.cls-18,.cls-19,.cls-2,.cls-3,.cls-33,.cls-34,.cls-4,.cls-5,.cls-6,.cls-7,.cls-8,.cls-9{stroke-miterlimit:10;}.cls-3,.cls-4{stroke:#d6e2ed;}.cls-3{opacity:0.6;}.cls-4{opacity:0.8;}.cls-5{fill:#dd2f4c;}.cls-5,.cls-6{stroke:#fc95e1;}.cls-6{fill:#840f28;}.cls-7{fill:#f8f9cd;}.cls-7,.cls-8,.cls-9{stroke:#f9f8f2;}.cls-8{fill:#b7b67d;}.cls-9{fill:#89875b;}.cls-10{fill:#1342b7;stroke:#ccd6f2;}.cls-11{fill:#c6c6c6;}.cls-11,.cls-12{stroke:#b5b5b5;}.cls-12{fill:#7a7a7a;}.cls-13,.cls-18{fill:none;}.cls-13,.cls-15,.cls-16,.cls-17,.cls-19,.cls-34{stroke:#fff;}.cls-13,.cls-14{stroke-width:3px;}.cls-14,.cls-18{stroke:#000;}.cls-14{fill:url(#Unbenannter_Verlauf_30);}.cls-15{fill:#ededed;}.cls-16{fill:#d8d8d8;}.cls-17{fill:#f9f9f9;}.cls-18{stroke-width:8px;}.cls-19,.cls-35,.cls-38{fill:#fff;}.cls-20,.cls-35{font-size:46px;font-family:Montserrat-Bold, Montserrat;font-weight:700;}.cls-21{letter-spacing:-0.05em;}.cls-22{letter-spacing:0.04em;}.cls-23{letter-spacing:-0.01em;}.cls-24{letter-spacing:-0.01em;}.cls-25,.cls-38{font-size:26px;font-family:Montserrat-Medium, Montserrat;}.cls-26{letter-spacing:0em;}.cls-27{letter-spacing:-0.01em;}.cls-28{letter-spacing:-0.02em;}.cls-29{letter-spacing:0em;}.cls-30{letter-spacing:0.01em;}.cls-31{letter-spacing:0.01em;}.cls-32{letter-spacing:-0.01em;}.cls-33{fill:#91b6f2;stroke:#edf1f9;}.cls-34{fill:#050505;}.cls-36{letter-spacing:0.01em;}.cls-37{letter-spacing:0em;}.cls-39{letter-spacing:0em;}.cls-40{letter-spacing:-0.01em;}.cls-41{letter-spacing:-0.02em;}.cls-42{letter-spacing:0em;}.cls-43{letter-spacing:-0.01em;}.cls-44{letter-spacing:-0.05em;}.cls-45{letter-spacing:0em;}.cls-46{letter-spacing:0em;}.cls-47{letter-spacing:-0.01em;}</style><linearGradient id="Unbenannter_Verlauf_45" x1="960" x2="960" y2="1080" gradientUnits="userSpaceOnUse"><stop offset="0" stop-color="#ffa67f"/><stop offset="0.08" stop-color="#fdac88"/><stop offset="0.21" stop-color="#f9bca2"/><stop offset="0.39" stop-color="#f2d5cb"/><stop offset="0.57" stop-color="#e9f5ff"/><stop offset="0.87" stop-color="#006994"/><stop offset="0.99" stop-color="#005894"/></linearGradient><linearGradient id="Unbenannter_Verlauf_30" x1="157.97" y1="901.56" x2="229.99" y2="901.56" gradientTransform="translate(0.1 0)" gradientUnits="userSpaceOnUse"><stop offset="0" stop-color="#00143f"/><stop offset="0.1" stop-color="#001d48"/><stop offset="0.27" stop-color="#00375f"/><stop offset="0.49" stop-color="#006084"/><stop offset="0.57" stop-color="#007194"/><stop offset="0.87" stop-color="#006994"/><stop offset="0.99" stop-color="#005894"/></linearGradient></defs><title>1_Burg</title><g id="Background"><rect class="cls-1" width="1920" height="1080"/></g><g id="Berge"><polygon class="cls-2" points="-87 854 347 581 688.55 809.5 891.57 638.04 1281 1012 1695 697 1977.5 908 1977.5 1251 -87 1251 -87 854"/><polygon class="cls-3" points="-87.5 714.5 78.5 650.5 357.5 907.5 636.5 714.5 898.5 907.5 1254.5 877.5 1534.5 769.5 1713.5 769.5 1977.5 694.5 1977.5 1104.5 -87.5 1104.5 -87.5 714.5"/><polygon class="cls-4" points="-86.5 1055.2 149.5 932.5 606.5 993.5 915.5 853.5 1264.5 996.15 1784.5 907.5 1977.5 972.5 1977.5 1165.5 -86.5 1165.5 -86.5 1055.2"/></g><g id="Burg"><g id="_1_Burg" data-name="1_Burg"><polygon class="cls-5" points="1618 633 1588 685 1618 678 1618 633"/><polygon class="cls-6" points="1618 633 1648.5 684 1618 678 1618 633"/><polygon class="cls-7" points="1588 685 1604 708.5 1618 692.5 1618 678 1588 685"/><polygon class="cls-8" points="1648.5 684 1618 678 1618 692.5 1632.5 708.5 1648.5 684"/><polygon class="cls-5" points="1618 692.5 1604 708.5 1618 708.5 1618 692.5"/><polygon class="cls-6" points="1618 692.5 1618 708.5 1632.5 708.5 1618 692.5"/><polyline class="cls-7" points="1618 770.5 1578.5 770.5 1593 734.5 1599 726 1618 726"/><polygon class="cls-8" points="1618.25 770.5 1657.75 770.5 1643.25 734.5 1637.25 726 1618.25 726 1618.25 770.5"/><polygon class="cls-7" points="1618 708.5 1604 708.5 1604 729 1618 732.5 1618 708.5"/><polygon class="cls-8" points="1618 708.5 1618 732.5 1632.5 729 1632.5 708.5 1618 708.5"/><polygon class="cls-5" points="1604 729 1618 742 1618 732.5 1604 729"/><polygon class="cls-6" points="1618 732.5 1632.5 729 1618 742 1618 732.5"/><polygon class="cls-7" points="1570.78 721.5 1573 713.5 1592.5 713.5 1595.6 721.5 1595.5 726 1571 726 1570.78 721.5"/><polygon class="cls-8" points="1584.22 756.29 1596.5 726 1569 726 1584.22 756.29"/><polygon class="cls-5" points="1599 726 1599 721.5 1586.5 721.5 1586.5 726 1593 734.5 1599 726"/><polygon class="cls-5" points="1579.5 721.5 1566.5 721.5 1566.5 726 1573 734 1579.5 726 1579.5 721.5"/><polygon class="cls-8" points="1665.72 722 1663.5 714 1644 714 1640.9 722 1641 726.5 1665.5 726.5 1665.72 722"/><polygon class="cls-9" points="1652.28 756.79 1640 726.5 1667.5 726.5 1652.28 756.79"/><polygon class="cls-6" points="1637.5 726.5 1637.5 722 1650 722 1650 726.5 1643.5 735 1637.5 726.5"/><polygon class="cls-6" points="1657 722 1670 722 1670 726.5 1663.5 734.5 1657 726.5 1657 722"/><line class="cls-7" x1="1618" y1="726" x2="1618" y2="770.5"/><rect class="cls-5" x="1569.5" y="708.5" width="6" height="7.5"/><rect class="cls-5" x="1579.75" y="708.5" width="6" height="7.5"/><rect class="cls-5" x="1590" y="708.5" width="6" height="7.5"/><rect class="cls-6" x="1640.5" y="708.5" width="6" height="7.5"/><rect class="cls-6" x="1650.75" y="708.5" width="6" height="7.5"/><rect class="cls-6" x="1661" y="708.5" width="6" height="7.5"/></g></g><g id="Flugobjekt"><g id="_1_Burg-2" data-name="1_Burg"><circle class="cls-10" cx="225.5" cy="868.5" r="17"/></g></g><g id="Kanone"><g id="Burg_Kanone"><g id="Kanone_beweglich"><rect id="Rohr" class="cls-11" x="166.25" y="832.67" width="37.23" height="143.86" rx="9.17" ry="9.17" transform="translate(735.01 163.11) rotate(48.12)"/><rect id="Boden" class="cls-12" x="189.75" y="843.32" width="9.26" height="143.78" transform="translate(746.08 159.55) rotate(48.12)"/><g id="Rad"><circle class="cls-13" cx="194.13" cy="901.44" r="36.01"/><line class="cls-13" x1="167.43" y1="925.61" x2="221.11" y2="877.58"/></g></g><line id="Horizontale" class="cls-14" x1="158.06" y1="901.56" x2="230.09" y2="901.56"/></g></g><g id="Wolken"><path class="cls-15" d="M435,125.5a27.43,27.43,0,0,0-6.57.8C427.31,110.8,411,98.5,391,98.5a46.41,46.41,0,0,0-13.37,1.94c-4.2-18.2-23.25-31.94-46.13-31.94C308,68.5,288.44,83.06,285,102.06a46.59,46.59,0,0,0-12-1.56c-19.25,0-35.11,11.42-37.25,26.12A27.2,27.2,0,0,0,228,125.5a27.5,27.5,0,0,0,0,55,27.92,27.92,0,0,0,5.68-.59c1.86,14.93,17.86,26.59,37.32,26.59a46.59,46.59,0,0,0,12-1.56c3.41,19,22.92,33.56,46.47,33.56,22.88,0,41.93-13.74,46.13-31.94A46.41,46.41,0,0,0,389,208.5c20.65,0,37.39-13.13,37.5-29.35A27.5,27.5,0,1,0,435,125.5Z"/><path class="cls-16" d="M331.5,68.5c-16.09,0-29.42,14.56-31.75,33.56a22.46,22.46,0,0,0-8.22-1.56c-13.15,0-24,11.42-25.44,26.12a13.26,13.26,0,0,0-5.3-1.12C250.41,125.5,242,137.81,242,153s8.41,27.5,18.79,27.5a13.31,13.31,0,0,0,3.88-.59c1.27,14.93,12.2,26.59,25.5,26.59a22.53,22.53,0,0,0,8.22-1.56c2.32,19,15.65,33.56,31.74,33.56.46,0,.92,0,1.37,0Z"/><path class="cls-17" d="M331.5,239.5c16.09,0,29.42-14.56,31.75-33.56a22.46,22.46,0,0,0,8.22,1.56c13.15,0,24-11.42,25.44-26.12a13.26,13.26,0,0,0,5.3,1.12c10.38,0,18.79-12.31,18.79-27.5s-8.41-27.5-18.79-27.5a13.31,13.31,0,0,0-3.88.59c-1.27-14.93-12.2-26.59-25.5-26.59a22.53,22.53,0,0,0-8.22,1.56c-2.32-19-15.65-33.56-31.74-33.56-.46,0-.92,0-1.37,0Z"/><path class="cls-15" d="M1108,162.5a27.43,27.43,0,0,0-6.57.8c-1.12-15.5-17.45-27.8-37.43-27.8a46.41,46.41,0,0,0-13.37,1.94c-4.2-18.2-23.25-31.94-46.13-31.94-23.55,0-43.06,14.56-46.47,33.56a46.59,46.59,0,0,0-12-1.56c-19.25,0-35.11,11.42-37.25,26.12A27.2,27.2,0,0,0,901,162.5a27.5,27.5,0,0,0,0,55,27.92,27.92,0,0,0,5.68-.59c1.86,14.93,17.86,26.59,37.32,26.59a46.59,46.59,0,0,0,12-1.56c3.41,19,22.92,33.56,46.47,33.56,22.88,0,41.93-13.74,46.13-31.94A46.41,46.41,0,0,0,1062,245.5c20.65,0,37.39-13.13,37.5-29.35a27.5,27.5,0,1,0,8.5-53.65Z"/><path class="cls-16" d="M1004.5,105.5c-16.09,0-29.42,14.56-31.75,33.56a22.46,22.46,0,0,0-8.22-1.56c-13.15,0-24,11.42-25.44,26.12a13.26,13.26,0,0,0-5.3-1.12C923.41,162.5,915,174.81,915,190s8.41,27.5,18.79,27.5a13.31,13.31,0,0,0,3.88-.59c1.27,14.93,12.2,26.59,25.5,26.59a22.53,22.53,0,0,0,8.22-1.56c2.32,19,15.65,33.56,31.74,33.56.46,0,.92,0,1.37,0Z"/><path class="cls-17" d="M1004.5,276.5c16.09,0,29.42-14.56,31.75-33.56a22.46,22.46,0,0,0,8.22,1.56c13.15,0,24-11.42,25.44-26.12a13.26,13.26,0,0,0,5.3,1.12c10.38,0,18.79-12.31,18.79-27.5s-8.41-27.5-18.79-27.5a13.31,13.31,0,0,0-3.88.59c-1.27-14.93-12.2-26.59-25.5-26.59a22.53,22.53,0,0,0-8.22,1.56c-2.32-19-15.65-33.56-31.74-33.56-.46,0-.92,0-1.37,0Z"/><path class="cls-15" d="M1799,260.5a27.43,27.43,0,0,0-6.57.8c-1.12-15.5-17.45-27.8-37.43-27.8a46.41,46.41,0,0,0-13.37,1.94c-4.2-18.2-23.25-31.94-46.13-31.94-23.55,0-43.06,14.56-46.47,33.56a46.59,46.59,0,0,0-12-1.56c-19.25,0-35.11,11.42-37.25,26.12a27.2,27.2,0,0,0-7.75-1.12,27.5,27.5,0,0,0,0,55,27.92,27.92,0,0,0,5.68-.59c1.86,14.93,17.86,26.59,37.32,26.59a46.59,46.59,0,0,0,12-1.56c3.41,19,22.92,33.56,46.47,33.56,22.88,0,41.93-13.74,46.13-31.94A46.41,46.41,0,0,0,1753,343.5c20.65,0,37.39-13.13,37.5-29.35a27.5,27.5,0,1,0,8.5-53.65Z"/><path class="cls-16" d="M1695.5,203.5c-16.09,0-29.42,14.56-31.75,33.56a22.46,22.46,0,0,0-8.22-1.56c-13.15,0-24,11.42-25.44,26.12a13.26,13.26,0,0,0-5.3-1.12c-10.38,0-18.79,12.31-18.79,27.5s8.41,27.5,18.79,27.5a13.31,13.31,0,0,0,3.88-.59c1.27,14.93,12.2,26.59,25.5,26.59a22.53,22.53,0,0,0,8.22-1.56c2.32,19,15.65,33.56,31.74,33.56.46,0,.92,0,1.37,0Z"/><path class="cls-17" d="M1695.5,374.5c16.09,0,29.42-14.56,31.75-33.56a22.46,22.46,0,0,0,8.22,1.56c13.15,0,24-11.42,25.44-26.12a13.26,13.26,0,0,0,5.3,1.12c10.38,0,18.79-12.31,18.79-27.5s-8.41-27.5-18.79-27.5a13.31,13.31,0,0,0-3.88.59c-1.27-14.93-12.2-26.59-25.5-26.59a22.53,22.53,0,0,0-8.22,1.56c-2.32-19-15.65-33.56-31.74-33.56-.46,0-.92,0-1.37,0Z"/></g><g id="Feedback"><g id="_1_Burg_Feedback" data-name="1_Burg_Feedback"><g id="Feedback_passed"><g id="Fahne_passed"><line id="Pfosten_passed" class="cls-18" x1="1619.57" y1="659" x2="1619.57" y2="209.5"/><polyline id="Fahne_passed-2" data-name="Fahne_passed" class="cls-19" points="1618.5 226.5 1164 226.5 1238.31 340.5 1164 455.5 1618.5 455.5 1618.5 226.5"/></g><text class="cls-20" transform="translate(1287.5 303.07)"><tspan class="cls-21">Hit!</tspan></text><text class="cls-25" transform="translate(1288.5 356.23)">You chose your <tspan x="0" y="31.2">Parameters well.</tspan><tspan x="0" y="62.4">Congratulations!</tspan></text><g id="_1_Burg_passed" data-name="1_Burg_passed"><polygon class="cls-33" points="1618 633 1588 685 1618 678 1618 633"/><polygon class="cls-10" points="1618 633 1648.5 684 1618 678 1618 633"/><polygon class="cls-7" points="1588 685 1604 708.5 1618 692.5 1618 678 1588 685"/><polygon class="cls-8" points="1648.5 684 1618 678 1618 692.5 1632.5 708.5 1648.5 684"/><polygon class="cls-33" points="1618 692.5 1604 708.5 1618 708.5 1618 692.5"/><polygon class="cls-10" points="1618 692.5 1618 708.5 1632.5 708.5 1618 692.5"/><polyline class="cls-7" points="1618 770.5 1578.5 770.5 1593 734.5 1599 726 1618 726"/><polygon class="cls-8" points="1618.25 770.5 1657.75 770.5 1643.25 734.5 1637.25 726 1618.25 726 1618.25 770.5"/><polygon class="cls-7" points="1618 708.5 1604 708.5 1604 729 1618 732.5 1618 708.5"/><polygon class="cls-8" points="1618 708.5 1618 732.5 1632.5 729 1632.5 708.5 1618 708.5"/><polygon class="cls-33" points="1604 729 1618 742 1618 732.5 1604 729"/><polygon class="cls-10" points="1618 732.5 1632.5 729 1618 742 1618 732.5"/><polygon class="cls-7" points="1570.78 721.5 1573 713.5 1592.5 713.5 1595.6 721.5 1595.5 726 1571 726 1570.78 721.5"/><polygon class="cls-8" points="1584.22 756.29 1596.5 726 1569 726 1584.22 756.29"/><polygon class="cls-33" points="1599 726 1599 721.5 1586.5 721.5 1586.5 726 1593 734.5 1599 726"/><polygon class="cls-33" points="1579.5 721.5 1566.5 721.5 1566.5 726 1573 734 1579.5 726 1579.5 721.5"/><polygon class="cls-8" points="1665.72 722 1663.5 714 1644 714 1640.9 722 1641 726.5 1665.5 726.5 1665.72 722"/><polygon class="cls-9" points="1652.28 756.79 1640 726.5 1667.5 726.5 1652.28 756.79"/><polygon class="cls-10" points="1637.5 726.5 1637.5 722 1650 722 1650 726.5 1643.5 735 1637.5 726.5"/><polygon class="cls-10" points="1657 722 1670 722 1670 726.5 1663.5 734.5 1657 726.5 1657 722"/><line class="cls-7" x1="1618" y1="726" x2="1618" y2="770.5"/><rect class="cls-33" x="1569.5" y="708.5" width="6" height="7.5"/><rect class="cls-33" x="1579.75" y="708.5" width="6" height="7.5"/><rect class="cls-33" x="1590" y="708.5" width="6" height="7.5"/><rect class="cls-10" x="1640.5" y="708.5" width="6" height="7.5"/><rect class="cls-10" x="1650.75" y="708.5" width="6" height="7.5"/><rect class="cls-10" x="1661" y="708.5" width="6" height="7.5"/></g></g><g id="Feedback_failed"><g id="Fahne_failed"><line id="Pfosten_failed" class="cls-18" x1="1619.57" y1="659" x2="1619.57" y2="209.5"/><polyline id="Fahne_failed-2" data-name="Fahne_failed" class="cls-34" points="1618.5 226.5 1164 226.5 1238.31 340.5 1164 455.5 1618.5 455.5 1618.5 226.5"/></g><text class="cls-35" transform="translate(1287.5 303.07)">You missed!</text><text class="cls-38" transform="translate(1288.5 356.23)">You have to adjust your<tspan x="0" y="31.2">parameters a little.</tspan><tspan class="cls-44" x="0" y="62.4">Try again!</tspan></text><g id="_1_Burg_failed" data-name="1_Burg_failed"><polygon class="cls-5" points="1618 633 1588 685 1618 678 1618 633"/><polygon class="cls-6" points="1618 633 1648.5 684 1618 678 1618 633"/><polygon class="cls-7" points="1588 685 1604 708.5 1618 692.5 1618 678 1588 685"/><polygon class="cls-8" points="1648.5 684 1618 678 1618 692.5 1632.5 708.5 1648.5 684"/><polygon class="cls-5" points="1618 692.5 1604 708.5 1618 708.5 1618 692.5"/><polygon class="cls-6" points="1618 692.5 1618 708.5 1632.5 708.5 1618 692.5"/><polyline class="cls-7" points="1618 770.5 1578.5 770.5 1593 734.5 1599 726 1618 726"/><polygon class="cls-8" points="1618.25 770.5 1657.75 770.5 1643.25 734.5 1637.25 726 1618.25 726 1618.25 770.5"/><polygon class="cls-7" points="1618 708.5 1604 708.5 1604 729 1618 732.5 1618 708.5"/><polygon class="cls-8" points="1618 708.5 1618 732.5 1632.5 729 1632.5 708.5 1618 708.5"/><polygon class="cls-5" points="1604 729 1618 742 1618 732.5 1604 729"/><polygon class="cls-6" points="1618 732.5 1632.5 729 1618 742 1618 732.5"/><polygon class="cls-7" points="1570.78 721.5 1573 713.5 1592.5 713.5 1595.6 721.5 1595.5 726 1571 726 1570.78 721.5"/><polygon class="cls-8" points="1584.22 756.29 1596.5 726 1569 726 1584.22 756.29"/><polygon class="cls-5" points="1599 726 1599 721.5 1586.5 721.5 1586.5 726 1593 734.5 1599 726"/><polygon class="cls-5" points="1579.5 721.5 1566.5 721.5 1566.5 726 1573 734 1579.5 726 1579.5 721.5"/><polygon class="cls-8" points="1665.72 722 1663.5 714 1644 714 1640.9 722 1641 726.5 1665.5 726.5 1665.72 722"/><polygon class="cls-9" points="1652.28 756.79 1640 726.5 1667.5 726.5 1652.28 756.79"/><polygon class="cls-6" points="1637.5 726.5 1637.5 722 1650 722 1650 726.5 1643.5 735 1637.5 726.5"/><polygon class="cls-6" points="1657 722 1670 722 1670 726.5 1663.5 734.5 1657 726.5 1657 722"/><line class="cls-7" x1="1618" y1="726" x2="1618" y2="770.5"/><rect class="cls-5" x="1569.5" y="708.5" width="6" height="7.5"/><rect class="cls-5" x="1579.75" y="708.5" width="6" height="7.5"/><rect class="cls-5" x="1590" y="708.5" width="6" height="7.5"/><rect class="cls-6" x="1640.5" y="708.5" width="6" height="7.5"/><rect class="cls-6" x="1650.75" y="708.5" width="6" height="7.5"/><rect class="cls-6" x="1661" y="708.5" width="6" height="7.5"/></g></g></g></g>
    <g id="OriginalCamera" class="Camera"><path d="M5 4h-3v-1h3v1zm12 9c0 2.206-1.794 4-4 4s-4-1.794-4-4 1.794-4 4-4 4 1.794 4 4zm-1 0c0-1.657-1.342-3-3-3s-3 1.343-3 3 1.342 3 3 3 3-1.343 3-3zm8-8v17h-24v-17h5.93c.669 0 1.293-.334 1.664-.891l1.406-2.109h8l1.406 2.109c.371.557.995.891 1.664.891h3.93zm-19 4c0-.552-.447-1-1-1s-1 .448-1 1 .447 1 1 1 1-.448 1-1zm14 4c0-3.314-2.687-6-6-6s-6 2.686-6 6 2.687 6 6 6 6-2.686 6-6z"/></g>
</svg>