<svg xmlns="http://www.w3.org/2000/svg" viewBox="0 0 208 277.37"><defs><style>.cls-1{fill:#91b6f2;stroke:#edf1f9;}.cls-1,.cls-2,.cls-3,.cls-4,.cls-5{stroke-miterlimit:10;}.cls-2{fill:#1342b7;stroke:#ccd6f2;}.cls-3{fill:#f8f9cd;}.cls-3,.cls-4,.cls-5{stroke:#f9f8f2;}.cls-4{fill:#b7b67d;}.cls-5{fill:#89875b;}</style></defs><title>Burg_getroffen</title><g id="Ebene_2" data-name="Ebene 2"><g id="Feedback"><g id="_1_Burg" data-name="1_Burg"><g id="Ja"><g id="_1_Burg-2" data-name="1_Burg"><polygon class="cls-1" points="103.5 1.87 43.5 105.87 103.5 91.87 103.5 1.87"/><polygon class="cls-2" points="103.5 1.87 164.5 103.87 103.5 91.87 103.5 1.87"/><polygon class="cls-3" points="43.5 105.87 75.5 152.87 103.5 120.87 103.5 91.87 43.5 105.87"/><polygon class="cls-4" points="164.5 103.87 103.5 91.87 103.5 120.87 132.5 152.87 164.5 103.87"/><polygon class="cls-1" points="103.5 120.87 75.5 152.87 103.5 152.87 103.5 120.87"/><polygon class="cls-2" points="103.5 120.87 103.5 152.87 132.5 152.87 103.5 120.87"/><polyline class="cls-3" points="103.5 276.87 24.5 276.87 53.5 204.87 65.5 187.87 103.5 187.87"/><polygon class="cls-4" points="104 276.87 183 276.87 154 204.87 142 187.87 104 187.87 104 276.87"/><polygon class="cls-3" points="103.5 152.87 75.5 152.87 75.5 193.87 103.5 200.87 103.5 152.87"/><polygon class="cls-4" points="103.5 152.87 103.5 200.87 132.5 193.87 132.5 152.87 103.5 152.87"/><polygon class="cls-1" points="75.5 193.87 103.5 219.87 103.5 200.87 75.5 193.87"/><polygon class="cls-2" points="103.5 200.87 132.5 193.87 103.5 219.87 103.5 200.87"/><polygon class="cls-3" points="9.05 178.87 13.5 162.87 52.5 162.87 58.69 178.87 58.5 187.87 9.5 187.87 9.05 178.87"/><polygon class="cls-4" points="35.95 248.44 60.5 187.87 5.5 187.87 35.95 248.44"/><polygon class="cls-1" points="65.5 187.87 65.5 178.87 40.5 178.87 40.5 187.87 53.5 204.87 65.5 187.87"/><polygon class="cls-1" points="26.5 178.87 0.5 178.87 0.5 187.87 13.5 203.87 26.5 187.87 26.5 178.87"/><polygon class="cls-4" points="198.95 179.87 194.5 163.87 155.5 163.87 149.31 179.87 149.5 188.87 198.5 188.87 198.95 179.87"/><polygon class="cls-5" points="172.05 249.44 147.5 188.87 202.5 188.87 172.05 249.44"/><polygon class="cls-2" points="142.5 188.87 142.5 179.87 167.5 179.87 167.5 188.87 154.5 205.87 142.5 188.87"/><polygon class="cls-2" points="181.5 179.87 207.5 179.87 207.5 188.87 194.5 204.87 181.5 188.87 181.5 179.87"/><line class="cls-3" x1="103.5" y1="187.87" x2="103.5" y2="276.87"/><rect class="cls-1" x="6.5" y="152.87" width="12" height="15"/><rect class="cls-1" x="27" y="152.87" width="12" height="15"/><rect class="cls-1" x="47.5" y="152.87" width="12" height="15"/><rect class="cls-2" x="148.5" y="152.87" width="12" height="15"/><rect class="cls-2" x="169" y="152.87" width="12" height="15"/><rect class="cls-2" x="189.5" y="152.87" width="12" height="15"/></g></g></g></g></g></svg>