<svg xmlns="http://www.w3.org/2000/svg" viewBox="0 0 227.53 99.29"><defs><style>.cls-1{fill:#c1b51e;}.cls-1,.cls-2,.cls-3,.cls-4,.cls-5,.cls-6{stroke:#f4f2c9;stroke-miterlimit:10;}.cls-2{fill:#f7f297;}.cls-3{fill:#eaea34;}.cls-4{fill:#7a7016;}.cls-5{fill:#a5971b;}.cls-6{fill:#ede77c;}</style></defs><title>Feedback</title><g id="Ebene_2" data-name="Ebene 2"><g id="Feedback"><g id="_1_Welle" data-name="1_Welle"><g id="Ja"><g id="_1_Welle-2" data-name="1_Welle"><polygon class="cls-1" points="1.08 6.79 98.08 38.79 86.08 52.79 1.08 6.79"/><polygon class="cls-2" points="43.08 98.79 1.08 6.79 85.92 53.07 133.08 78.79 109.08 98.79 43.08 98.79"/><polygon class="cls-3" points="225.08 1.79 109.08 98.79 181.08 98.79 225.08 1.79"/><polygon class="cls-4" points="225.08 1.79 133.08 34.48 157.08 58.79 225.08 1.79"/><polygon class="cls-5" points="116.08 17.79 86.08 52.79 133.08 78.79 157.08 58.79 116.08 17.79"/><path class="cls-6" d="M115.18,18.84l-29.1,34,30,16.73V19.17A.51.51,0,0,0,115.18,18.84Z"/></g></g></g></g></g></svg>