<svg xmlns="http://www.w3.org/2000/svg" viewBox="0 0 227.53 99.29"><defs><style>.cls-1{fill:#b71530;}.cls-1,.cls-2,.cls-3,.cls-4{stroke:#fc95e1;stroke-miterlimit:10;}.cls-2{fill:#dd2f4c;}.cls-3{fill:#f72b44;}.cls-4{fill:#840f28;}</style></defs><title>Schiff</title><g id="Ebene_2" data-name="Ebene 2"><g id="Schiff"><g id="_1_Welle" data-name="1_Welle"><polygon class="cls-1" points="1.08 6.79 98.08 38.79 86.08 52.79 1.08 6.79"/><polygon class="cls-2" points="43.08 98.79 1.08 6.79 85.92 53.07 133.08 78.79 109.08 98.79 43.08 98.79"/><polygon class="cls-3" points="225.08 1.79 109.08 98.79 181.08 98.79 225.08 1.79"/><polygon class="cls-4" points="225.08 1.79 133.08 34.48 157.08 58.79 225.08 1.79"/><polygon class="cls-4" points="116.08 17.79 86.08 52.79 133.08 78.79 157.08 58.79 116.08 17.79"/><path class="cls-1" d="M115.18,18.84l-29.1,34,30,16.73V19.17A.51.51,0,0,0,115.18,18.84Z"/></g></g></g></svg>