<svg xmlns="http://www.w3.org/2000/svg" xmlns:xlink="http://www.w3.org/1999/xlink" viewBox="0 0 1920 1080"><defs><style>.cls-1{fill:url(#Unbenannter_Verlauf_45);}.cls-2,.cls-3,.cls-4{fill:#4f5b6b;stroke-miterlimit:10;}.cls-2{stroke:#b5cce5;opacity:0.3;}.cls-3,.cls-4{stroke:#d6e2ed;}.cls-3{opacity:0.6;}.cls-4{opacity:0.8;}</style><linearGradient id="Unbenannter_Verlauf_45" x1="960" x2="960" y2="1080" gradientUnits="userSpaceOnUse"><stop offset="0" stop-color="#ffa67f"/><stop offset="0.08" stop-color="#fdac88"/><stop offset="0.21" stop-color="#f9bca2"/><stop offset="0.39" stop-color="#f2d5cb"/><stop offset="0.57" stop-color="#e9f5ff"/><stop offset="0.87" stop-color="#006994"/><stop offset="0.99" stop-color="#005894"/></linearGradient></defs><title>1_Burg</title><g id="Background"><rect class="cls-1" width="1920" height="1080"/></g><g id="Berge"><polygon class="cls-2" points="-87 854 347 581 688.55 809.5 891.57 638.04 1281 1012 1695 697 1977.5 908 1977.5 1251 -87 1251 -87 854"/><polygon class="cls-3" points="-87.5 714.5 78.5 650.5 357.5 907.5 636.5 714.5 898.5 907.5 1254.5 877.5 1534.5 769.5 1713.5 769.5 1977.5 694.5 1977.5 1104.5 -87.5 1104.5 -87.5 714.5"/><polygon class="cls-4" points="-86.5 1055.2 149.5 932.5 606.5 993.5 915.5 853.5 1264.5 996.15 1784.5 907.5 1977.5 972.5 1977.5 1165.5 -86.5 1165.5 -86.5 1055.2"/></g></svg>