<svg xmlns="http://www.w3.org/2000/svg" xmlns:xlink="http://www.w3.org/1999/xlink" viewBox="0 0 1920 1080"><defs><style>.cls-1{fill:url(#Unbenannter_Verlauf_30);}.cls-2{fill:#fff;}</style><linearGradient id="Unbenannter_Verlauf_30" x1="960" x2="960" y2="1080" gradientUnits="userSpaceOnUse"><stop offset="0" stop-color="#00143f"/><stop offset="0.1" stop-color="#001d48"/><stop offset="0.27" stop-color="#00375f"/><stop offset="0.49" stop-color="#006084"/><stop offset="0.57" stop-color="#007194"/><stop offset="0.87" stop-color="#006994"/><stop offset="0.99" stop-color="#005894"/></linearGradient></defs><title>1_Welle</title><g id="Background"><g id="_1_Welle" data-name="1_Welle"><rect class="cls-1" width="1920" height="1080"/></g></g><g id="Sterne"><g id="_1_Welle-2" data-name="1_Welle"><path class="cls-2" d="M187.18,205.05a1.5,1.5,0,0,0,0-3,1.5,1.5,0,0,0,0,3Z"/><path class="cls-2" d="M462.94,171.71a1.5,1.5,0,0,0,0-3,1.5,1.5,0,0,0,0,3Z"/><path class="cls-2" d="M532.64,280.8a1.5,1.5,0,0,0,0-3,1.5,1.5,0,0,0,0,3Z"/><path class="cls-2" d="M847.79,141.41a1.5,1.5,0,0,0,0-3,1.5,1.5,0,0,0,0,3Z"/><path class="cls-2" d="M1072,238.38a1.5,1.5,0,0,0,0-3,1.5,1.5,0,0,0,0,3Z"/><path class="cls-2" d="M1290.21,144.44a1.5,1.5,0,0,0,0-3,1.5,1.5,0,0,0,0,3Z"/><path class="cls-2" d="M1490.21,217.17a1.5,1.5,0,0,0,0-3,1.5,1.5,0,0,0,0,3Z"/><path class="cls-2" d="M1593.24,371.71a1.5,1.5,0,0,0,0-3,1.5,1.5,0,0,0,0,3Z"/><path class="cls-2" d="M1732.64,241.41a1.5,1.5,0,0,0,0-3,1.5,1.5,0,0,0,0,3Z"/><path class="cls-2" d="M1496.27,47.47a1.5,1.5,0,0,0,0-3,1.5,1.5,0,0,0,0,3Z"/><path class="cls-2" d="M1320.52,35.35a1.5,1.5,0,0,0,0-3,1.5,1.5,0,0,0,0,3Z"/><path class="cls-2" d="M781.12,35.35a1.5,1.5,0,0,0,0-3,1.5,1.5,0,0,0,0,3Z"/><path class="cls-2" d="M641.73,177.77a1.5,1.5,0,0,0,0-3,1.5,1.5,0,0,0,0,3Z"/><path class="cls-2" d="M405.36,5.05a1.5,1.5,0,0,0,0-3,1.5,1.5,0,0,0,0,3Z"/><path class="cls-2" d="M147.79,86.86a1.5,1.5,0,0,0,0-3,1.5,1.5,0,0,0,0,3Z"/><path class="cls-2" d="M372,177.77a1.5,1.5,0,0,0,0-3,1.5,1.5,0,0,0,0,3Z"/><path class="cls-2" d="M56.88,371.71a1.5,1.5,0,0,0,0-3,1.5,1.5,0,0,0,0,3Z"/><path class="cls-2" d="M1769,59.59a1.5,1.5,0,0,0,0-3,1.5,1.5,0,0,0,0,3Z"/><path class="cls-2" d="M238.7,97.45c3.86,0,3.86-6,0-6s-3.87,6,0,6Z"/><path class="cls-2" d="M362.94,227.76c3.86,0,3.87-6,0-6s-3.87,6,0,6Z"/><path class="cls-2" d="M717.48,127.76c3.87,0,3.87-6,0-6s-3.86,6,0,6Z"/><path class="cls-2" d="M1287.18,33.82c3.86,0,3.87-6,0-6s-3.87,6,0,6Z"/><path class="cls-2" d="M1402.33,249c3.86,0,3.87-6,0-6s-3.86,6,0,6Z"/><path class="cls-2" d="M1826.58,94.42c3.86,0,3.86-6,0-6s-3.87,6,0,6Z"/><path class="cls-2" d="M472,23.2c5.79,0,5.8-9,0-9s-5.8,9,0,9Z"/><path class="cls-2" d="M1072,92.89c5.79,0,5.8-9,0-9s-5.8,9,0,9Z"/><path class="cls-2" d="M20.52,129.26c5.79,0,5.8-9,0-9s-5.81,9,0,9Z"/><path class="cls-2" d="M381.12,33.79c7.72,0,7.74-12,0-12s-7.73,12,0,12Z"/><path class="cls-2" d="M126.58,83.83a1.5,1.5,0,0,0,0-3,1.5,1.5,0,0,0,0,3Z"/><path class="cls-2" d="M56.88,111.11a1.5,1.5,0,0,0,0-3,1.5,1.5,0,0,0,0,3Z"/><path class="cls-2" d="M835.67,180.8a1.5,1.5,0,0,0,0-3,1.5,1.5,0,0,0,0,3Z"/><path class="cls-2" d="M1081.12,59.59a1.5,1.5,0,0,0,0-3,1.5,1.5,0,0,0,0,3Z"/><path class="cls-2" d="M1299.3,77a.75.75,0,0,0,0-1.5.75.75,0,0,0,0,1.5Z"/><path class="cls-2" d="M1590.21,128.54a.75.75,0,0,0,0-1.5.75.75,0,0,0,0,1.5Z"/><path class="cls-2" d="M643.31,155.31a1.5,1.5,0,0,0,0-3,1.5,1.5,0,0,0,0,3Z"/><path class="cls-2" d="M449.28,197.3a1.5,1.5,0,0,0,0-3,1.5,1.5,0,0,0,0,3Z"/><path class="cls-2" d="M423.21,143.72a1.5,1.5,0,0,0,0-3,1.5,1.5,0,0,0,0,3Z"/><path class="cls-2" d="M1104.48,69.85a1.5,1.5,0,0,0,0-3,1.5,1.5,0,0,0,0,3Z"/><path class="cls-2" d="M637.89,20.53a1.13,1.13,0,0,0,0-2.25,1.13,1.13,0,0,0,0,2.25Z"/><path class="cls-2" d="M956.65,100.73a1.13,1.13,0,0,0,0-2.25,1.13,1.13,0,0,0,0,2.25Z"/><path class="cls-2" d="M1016.79,104.74a1.13,1.13,0,0,0,0-2.25,1.13,1.13,0,0,0,0,2.25Z"/><path class="cls-2" d="M1409.74,104.74a1.13,1.13,0,0,0,0-2.25,1.13,1.13,0,0,0,0,2.25Z"/><path class="cls-2" d="M1710.46,88.7a1.13,1.13,0,0,0,0-2.25,1.13,1.13,0,0,0,0,2.25Z"/><path class="cls-2" d="M1872.85,52.61a1.13,1.13,0,0,0,0-2.25,1.13,1.13,0,0,0,0,2.25Z"/><path class="cls-2" d="M966.67,14.52a1.13,1.13,0,0,0,0-2.25,1.13,1.13,0,0,0,0,2.25Z"/></g></g></svg>