<svg id="Wellen" xmlns="http://www.w3.org/2000/svg" viewBox="0 0 1920 1080"><defs><style>.cls-1{fill:#2a7d9e;opacity:0.6;}.cls-1,.cls-2,.cls-3{stroke:#fff;stroke-miterlimit:10;}.cls-2{fill:#279cb7;}.cls-2,.cls-3{opacity:0.5;}.cls-3{fill:#19bbc1;}</style></defs><title>Wellen</title><path class="cls-1" d="M-36.5,712.5s103,85,338,85,691-243,1007-243,346,121,502,121,235-108,235-108v622H-36.5Z"/><path class="cls-2" d="M-36.5,810.5s65-96,277-96,366,115,477,115,175-72,286-72,157,184,346,184,193-227,391-227,264,174,264,174v269H-36.5Z"/><path class="cls-3" d="M2045.5,915.57s-41-118.57-94-118.57c-235.42,0-177.77,118.57-301,118.57s-101-81.87-224.32-81.87S986.7,1014.38,776.82,1014.38,540.29,851.77,320.41,851.77-30.5,959.61-30.5,959.61V1111.5h2076Z"/></svg>