<svg id="Wolken" xmlns="http://www.w3.org/2000/svg" viewBox="0 0 1920 1080"><defs><style>.cls-1{fill:#ededed;}.cls-1,.cls-2,.cls-3{stroke:#fff;stroke-miterlimit:10;}.cls-2{fill:#d8d8d8;}.cls-3{fill:#f9f9f9;}</style></defs><title>Wolken</title><path class="cls-1" d="M435,125.5a27.43,27.43,0,0,0-6.57.8C427.31,110.8,411,98.5,391,98.5a46.41,46.41,0,0,0-13.37,1.94c-4.2-18.2-23.25-31.94-46.13-31.94C308,68.5,288.44,83.06,285,102.06a46.59,46.59,0,0,0-12-1.56c-19.25,0-35.11,11.42-37.25,26.12A27.2,27.2,0,0,0,228,125.5a27.5,27.5,0,0,0,0,55,27.92,27.92,0,0,0,5.68-.59c1.86,14.93,17.86,26.59,37.32,26.59a46.59,46.59,0,0,0,12-1.56c3.41,19,22.92,33.56,46.47,33.56,22.88,0,41.93-13.74,46.13-31.94A46.41,46.41,0,0,0,389,208.5c20.65,0,37.39-13.13,37.5-29.35A27.5,27.5,0,1,0,435,125.5Z"/><path class="cls-2" d="M331.5,68.5c-16.09,0-29.42,14.56-31.75,33.56a22.46,22.46,0,0,0-8.22-1.56c-13.15,0-24,11.42-25.44,26.12a13.26,13.26,0,0,0-5.3-1.12C250.41,125.5,242,137.81,242,153s8.41,27.5,18.79,27.5a13.31,13.31,0,0,0,3.88-.59c1.27,14.93,12.2,26.59,25.5,26.59a22.53,22.53,0,0,0,8.22-1.56c2.32,19,15.65,33.56,31.74,33.56.46,0,.92,0,1.37,0Z"/><path class="cls-3" d="M331.5,239.5c16.09,0,29.42-14.56,31.75-33.56a22.46,22.46,0,0,0,8.22,1.56c13.15,0,24-11.42,25.44-26.12a13.26,13.26,0,0,0,5.3,1.12c10.38,0,18.79-12.31,18.79-27.5s-8.41-27.5-18.79-27.5a13.31,13.31,0,0,0-3.88.59c-1.27-14.93-12.2-26.59-25.5-26.59a22.53,22.53,0,0,0-8.22,1.56c-2.32-19-15.65-33.56-31.74-33.56-.46,0-.92,0-1.37,0Z"/><path class="cls-1" d="M1108,162.5a27.43,27.43,0,0,0-6.57.8c-1.12-15.5-17.45-27.8-37.43-27.8a46.41,46.41,0,0,0-13.37,1.94c-4.2-18.2-23.25-31.94-46.13-31.94-23.55,0-43.06,14.56-46.47,33.56a46.59,46.59,0,0,0-12-1.56c-19.25,0-35.11,11.42-37.25,26.12A27.2,27.2,0,0,0,901,162.5a27.5,27.5,0,0,0,0,55,27.92,27.92,0,0,0,5.68-.59c1.86,14.93,17.86,26.59,37.32,26.59a46.59,46.59,0,0,0,12-1.56c3.41,19,22.92,33.56,46.47,33.56,22.88,0,41.93-13.74,46.13-31.94A46.41,46.41,0,0,0,1062,245.5c20.65,0,37.39-13.13,37.5-29.35a27.5,27.5,0,1,0,8.5-53.65Z"/><path class="cls-2" d="M1004.5,105.5c-16.09,0-29.42,14.56-31.75,33.56a22.46,22.46,0,0,0-8.22-1.56c-13.15,0-24,11.42-25.44,26.12a13.26,13.26,0,0,0-5.3-1.12C923.41,162.5,915,174.81,915,190s8.41,27.5,18.79,27.5a13.31,13.31,0,0,0,3.88-.59c1.27,14.93,12.2,26.59,25.5,26.59a22.53,22.53,0,0,0,8.22-1.56c2.32,19,15.65,33.56,31.74,33.56.46,0,.92,0,1.37,0Z"/><path class="cls-3" d="M1004.5,276.5c16.09,0,29.42-14.56,31.75-33.56a22.46,22.46,0,0,0,8.22,1.56c13.15,0,24-11.42,25.44-26.12a13.26,13.26,0,0,0,5.3,1.12c10.38,0,18.79-12.31,18.79-27.5s-8.41-27.5-18.79-27.5a13.31,13.31,0,0,0-3.88.59c-1.27-14.93-12.2-26.59-25.5-26.59a22.53,22.53,0,0,0-8.22,1.56c-2.32-19-15.65-33.56-31.74-33.56-.46,0-.92,0-1.37,0Z"/><path class="cls-1" d="M1799,260.5a27.43,27.43,0,0,0-6.57.8c-1.12-15.5-17.45-27.8-37.43-27.8a46.41,46.41,0,0,0-13.37,1.94c-4.2-18.2-23.25-31.94-46.13-31.94-23.55,0-43.06,14.56-46.47,33.56a46.59,46.59,0,0,0-12-1.56c-19.25,0-35.11,11.42-37.25,26.12a27.2,27.2,0,0,0-7.75-1.12,27.5,27.5,0,0,0,0,55,27.92,27.92,0,0,0,5.68-.59c1.86,14.93,17.86,26.59,37.32,26.59a46.59,46.59,0,0,0,12-1.56c3.41,19,22.92,33.56,46.47,33.56,22.88,0,41.93-13.74,46.13-31.94A46.41,46.41,0,0,0,1753,343.5c20.65,0,37.39-13.13,37.5-29.35a27.5,27.5,0,1,0,8.5-53.65Z"/><path class="cls-2" d="M1695.5,203.5c-16.09,0-29.42,14.56-31.75,33.56a22.46,22.46,0,0,0-8.22-1.56c-13.15,0-24,11.42-25.44,26.12a13.26,13.26,0,0,0-5.3-1.12c-10.38,0-18.79,12.31-18.79,27.5s8.41,27.5,18.79,27.5a13.31,13.31,0,0,0,3.88-.59c1.27,14.93,12.2,26.59,25.5,26.59a22.53,22.53,0,0,0,8.22-1.56c2.32,19,15.65,33.56,31.74,33.56.46,0,.92,0,1.37,0Z"/><path class="cls-3" d="M1695.5,374.5c16.09,0,29.42-14.56,31.75-33.56a22.46,22.46,0,0,0,8.22,1.56c13.15,0,24-11.42,25.44-26.12a13.26,13.26,0,0,0,5.3,1.12c10.38,0,18.79-12.31,18.79-27.5s-8.41-27.5-18.79-27.5a13.31,13.31,0,0,0-3.88.59c-1.27-14.93-12.2-26.59-25.5-26.59a22.53,22.53,0,0,0-8.22,1.56c-2.32-19-15.65-33.56-31.74-33.56-.46,0-.92,0-1.37,0Z"/></svg>