<svg xmlns="http://www.w3.org/2000/svg" xmlns:xlink="http://www.w3.org/1999/xlink" viewBox="0 0 1920 1080"><defs><style>.cls-1{fill:url(#Unbenannter_Verlauf_45);}.cls-2,.cls-3,.cls-4{fill:#4f5b6b;}.cls-2{stroke:#b5cce5;opacity:0.3;}.cls-10,.cls-11,.cls-12,.cls-13,.cls-14,.cls-15,.cls-16,.cls-17,.cls-18,.cls-19,.cls-2,.cls-25,.cls-26,.cls-3,.cls-4,.cls-5,.cls-6,.cls-7,.cls-8,.cls-9{stroke-miterlimit:10;}.cls-3,.cls-4{stroke:#d6e2ed;}.cls-3{opacity:0.6;}.cls-4{opacity:0.8;}.cls-5{fill:#dd2f4c;}.cls-5,.cls-6{stroke:#fc95e1;}.cls-6{fill:#840f28;}.cls-7{fill:#f8f9cd;}.cls-7,.cls-8,.cls-9{stroke:#f9f8f2;}.cls-8{fill:#b7b67d;}.cls-9{fill:#89875b;}.cls-10{fill:#1342b7;stroke:#ccd6f2;}.cls-11{fill:#c6c6c6;}.cls-11,.cls-12{stroke:#b5b5b5;}.cls-12{fill:#7a7a7a;}.cls-13,.cls-18{stroke:#000;}.cls-13,.cls-14{stroke-width:3px;}.cls-13{fill:url(#Unbenannter_Verlauf_30);}.cls-14,.cls-18{fill:none;}.cls-14,.cls-15,.cls-16,.cls-17,.cls-19,.cls-26{stroke:#fff;}.cls-15{fill:#ededed;}.cls-16{fill:#d8d8d8;}.cls-17{fill:#f9f9f9;}.cls-18{stroke-width:8px;}.cls-19,.cls-27,.cls-28{fill:#fff;}.cls-20,.cls-27{font-size:46px;font-family:MuseoSans-900, Museo Sans;}.cls-21{letter-spacing:-0.03em;}.cls-22{letter-spacing:0em;}.cls-23,.cls-28{font-size:26px;font-family:MuseoSans-500, Museo Sans;}.cls-24{letter-spacing:0em;}.cls-25{fill:#91b6f2;stroke:#edf1f9;}.cls-26{fill:#050505;}.cls-29{letter-spacing:0em;}.cls-30{letter-spacing:-0.03em;}</style><linearGradient id="Unbenannter_Verlauf_45" x1="960" x2="960" y2="1080" gradientUnits="userSpaceOnUse"><stop offset="0" stop-color="#ffa67f"/><stop offset="0.08" stop-color="#fdac88"/><stop offset="0.21" stop-color="#f9bca2"/><stop offset="0.39" stop-color="#f2d5cb"/><stop offset="0.57" stop-color="#e9f5ff"/><stop offset="0.87" stop-color="#006994"/><stop offset="0.99" stop-color="#005894"/></linearGradient><linearGradient id="Unbenannter_Verlauf_30" x1="153" y1="820.5" x2="328" y2="820.5" gradientTransform="translate(0.1 0)" gradientUnits="userSpaceOnUse"><stop offset="0" stop-color="#00143f"/><stop offset="0.1" stop-color="#001d48"/><stop offset="0.27" stop-color="#00375f"/><stop offset="0.49" stop-color="#006084"/><stop offset="0.57" stop-color="#007194"/><stop offset="0.87" stop-color="#006994"/><stop offset="0.99" stop-color="#005894"/></linearGradient></defs><title>1_Burg</title><g id="Background"><rect class="cls-1" width="1920" height="1080"/></g><g id="Berge"><polygon class="cls-2" points="-87 854 347 581 688.55 809.5 891.57 638.04 1281 1012 1695 697 1977.5 908 1977.5 1251 -87 1251 -87 854"/><polygon class="cls-3" points="-87.5 714.5 78.5 650.5 357.5 907.5 636.5 714.5 898.5 907.5 1254.5 877.5 1534.5 769.5 1713.5 769.5 1977.5 694.5 1977.5 1104.5 -87.5 1104.5 -87.5 714.5"/><polygon class="cls-4" points="-86.5 1055.2 149.5 932.5 606.5 993.5 915.5 853.5 1264.5 996.15 1784.5 907.5 1977.5 972.5 1977.5 1165.5 -86.5 1165.5 -86.5 1055.2"/></g><g id="Burg"><g id="_1_Burg" data-name="1_Burg"><polygon class="cls-5" points="1617.5 495.5 1557.5 599.5 1617.5 585.5 1617.5 495.5"/><polygon class="cls-6" points="1617.5 495.5 1678.5 597.5 1617.5 585.5 1617.5 495.5"/><polygon class="cls-7" points="1557.5 599.5 1589.5 646.5 1617.5 614.5 1617.5 585.5 1557.5 599.5"/><polygon class="cls-8" points="1678.5 597.5 1617.5 585.5 1617.5 614.5 1646.5 646.5 1678.5 597.5"/><polygon class="cls-5" points="1617.5 614.5 1589.5 646.5 1617.5 646.5 1617.5 614.5"/><polygon class="cls-6" points="1617.5 614.5 1617.5 646.5 1646.5 646.5 1617.5 614.5"/><polyline class="cls-7" points="1617.5 770.5 1538.5 770.5 1567.5 698.5 1579.5 681.5 1617.5 681.5"/><polygon class="cls-8" points="1618 770.5 1697 770.5 1668 698.5 1656 681.5 1618 681.5 1618 770.5"/><polygon class="cls-7" points="1617.5 646.5 1589.5 646.5 1589.5 687.5 1617.5 694.5 1617.5 646.5"/><polygon class="cls-8" points="1617.5 646.5 1617.5 694.5 1646.5 687.5 1646.5 646.5 1617.5 646.5"/><polygon class="cls-5" points="1589.5 687.5 1617.5 713.5 1617.5 694.5 1589.5 687.5"/><polygon class="cls-6" points="1617.5 694.5 1646.5 687.5 1617.5 713.5 1617.5 694.5"/><polygon class="cls-7" points="1523.05 672.5 1527.5 656.5 1566.5 656.5 1572.69 672.5 1572.5 681.5 1523.5 681.5 1523.05 672.5"/><polygon class="cls-8" points="1549.95 742.08 1574.5 681.5 1519.5 681.5 1549.95 742.08"/><polygon class="cls-5" points="1579.5 681.5 1579.5 672.5 1554.5 672.5 1554.5 681.5 1567.5 698.5 1579.5 681.5"/><polygon class="cls-5" points="1540.5 672.5 1514.5 672.5 1514.5 681.5 1527.5 697.5 1540.5 681.5 1540.5 672.5"/><polygon class="cls-8" points="1712.95 673.5 1708.5 657.5 1669.5 657.5 1663.31 673.5 1663.5 682.5 1712.5 682.5 1712.95 673.5"/><polygon class="cls-9" points="1686.05 743.08 1661.5 682.5 1716.5 682.5 1686.05 743.08"/><polygon class="cls-6" points="1656.5 682.5 1656.5 673.5 1681.5 673.5 1681.5 682.5 1668.5 699.5 1656.5 682.5"/><polygon class="cls-6" points="1695.5 673.5 1721.5 673.5 1721.5 682.5 1708.5 698.5 1695.5 682.5 1695.5 673.5"/><line class="cls-7" x1="1617.5" y1="681.5" x2="1617.5" y2="770.5"/><rect class="cls-5" x="1520.5" y="646.5" width="12" height="15"/><rect class="cls-5" x="1541" y="646.5" width="12" height="15"/><rect class="cls-5" x="1561.5" y="646.5" width="12" height="15"/><rect class="cls-6" x="1662.5" y="646.5" width="12" height="15"/><rect class="cls-6" x="1683" y="646.5" width="12" height="15"/><rect class="cls-6" x="1703.5" y="646.5" width="12" height="15"/></g></g><g id="Flugobjekt"><g id="_1_Burg-2" data-name="1_Burg"><circle class="cls-10" cx="532.5" cy="564.5" r="35"/></g></g><g id="Abflug"><rect class="cls-11" x="188.54" y="660.06" width="71.8" height="349.53" rx="19.6" ry="19.6" transform="translate(696.22 110.45) rotate(48.12)"/><rect class="cls-12" x="230.09" y="679.01" width="22.49" height="349.34" transform="translate(715.88 104.13) rotate(48.12)"/><line class="cls-13" x1="153.1" y1="820.5" x2="328.1" y2="820.5"/><circle class="cls-14" cx="240.74" cy="820.21" r="87.5"/><line class="cls-14" x1="175.87" y1="878.93" x2="306.27" y2="762.24"/></g><g id="Wolken"><path class="cls-15" d="M435,125.5a27.43,27.43,0,0,0-6.57.8C427.31,110.8,411,98.5,391,98.5a46.41,46.41,0,0,0-13.37,1.94c-4.2-18.2-23.25-31.94-46.13-31.94C308,68.5,288.44,83.06,285,102.06a46.59,46.59,0,0,0-12-1.56c-19.25,0-35.11,11.42-37.25,26.12A27.2,27.2,0,0,0,228,125.5a27.5,27.5,0,0,0,0,55,27.92,27.92,0,0,0,5.68-.59c1.86,14.93,17.86,26.59,37.32,26.59a46.59,46.59,0,0,0,12-1.56c3.41,19,22.92,33.56,46.47,33.56,22.88,0,41.93-13.74,46.13-31.94A46.41,46.41,0,0,0,389,208.5c20.65,0,37.39-13.13,37.5-29.35A27.5,27.5,0,1,0,435,125.5Z"/><path class="cls-16" d="M331.5,68.5c-16.09,0-29.42,14.56-31.75,33.56a22.46,22.46,0,0,0-8.22-1.56c-13.15,0-24,11.42-25.44,26.12a13.26,13.26,0,0,0-5.3-1.12C250.41,125.5,242,137.81,242,153s8.41,27.5,18.79,27.5a13.31,13.31,0,0,0,3.88-.59c1.27,14.93,12.2,26.59,25.5,26.59a22.53,22.53,0,0,0,8.22-1.56c2.32,19,15.65,33.56,31.74,33.56.46,0,.92,0,1.37,0Z"/><path class="cls-17" d="M331.5,239.5c16.09,0,29.42-14.56,31.75-33.56a22.46,22.46,0,0,0,8.22,1.56c13.15,0,24-11.42,25.44-26.12a13.26,13.26,0,0,0,5.3,1.12c10.38,0,18.79-12.31,18.79-27.5s-8.41-27.5-18.79-27.5a13.31,13.31,0,0,0-3.88.59c-1.27-14.93-12.2-26.59-25.5-26.59a22.53,22.53,0,0,0-8.22,1.56c-2.32-19-15.65-33.56-31.74-33.56-.46,0-.92,0-1.37,0Z"/><path class="cls-15" d="M1108,162.5a27.43,27.43,0,0,0-6.57.8c-1.12-15.5-17.45-27.8-37.43-27.8a46.41,46.41,0,0,0-13.37,1.94c-4.2-18.2-23.25-31.94-46.13-31.94-23.55,0-43.06,14.56-46.47,33.56a46.59,46.59,0,0,0-12-1.56c-19.25,0-35.11,11.42-37.25,26.12A27.2,27.2,0,0,0,901,162.5a27.5,27.5,0,0,0,0,55,27.92,27.92,0,0,0,5.68-.59c1.86,14.93,17.86,26.59,37.32,26.59a46.59,46.59,0,0,0,12-1.56c3.41,19,22.92,33.56,46.47,33.56,22.88,0,41.93-13.74,46.13-31.94A46.41,46.41,0,0,0,1062,245.5c20.65,0,37.39-13.13,37.5-29.35a27.5,27.5,0,1,0,8.5-53.65Z"/><path class="cls-16" d="M1004.5,105.5c-16.09,0-29.42,14.56-31.75,33.56a22.46,22.46,0,0,0-8.22-1.56c-13.15,0-24,11.42-25.44,26.12a13.26,13.26,0,0,0-5.3-1.12C923.41,162.5,915,174.81,915,190s8.41,27.5,18.79,27.5a13.31,13.31,0,0,0,3.88-.59c1.27,14.93,12.2,26.59,25.5,26.59a22.53,22.53,0,0,0,8.22-1.56c2.32,19,15.65,33.56,31.74,33.56.46,0,.92,0,1.37,0Z"/><path class="cls-17" d="M1004.5,276.5c16.09,0,29.42-14.56,31.75-33.56a22.46,22.46,0,0,0,8.22,1.56c13.15,0,24-11.42,25.44-26.12a13.26,13.26,0,0,0,5.3,1.12c10.38,0,18.79-12.31,18.79-27.5s-8.41-27.5-18.79-27.5a13.31,13.31,0,0,0-3.88.59c-1.27-14.93-12.2-26.59-25.5-26.59a22.53,22.53,0,0,0-8.22,1.56c-2.32-19-15.65-33.56-31.74-33.56-.46,0-.92,0-1.37,0Z"/><path class="cls-15" d="M1799,260.5a27.43,27.43,0,0,0-6.57.8c-1.12-15.5-17.45-27.8-37.43-27.8a46.41,46.41,0,0,0-13.37,1.94c-4.2-18.2-23.25-31.94-46.13-31.94-23.55,0-43.06,14.56-46.47,33.56a46.59,46.59,0,0,0-12-1.56c-19.25,0-35.11,11.42-37.25,26.12a27.2,27.2,0,0,0-7.75-1.12,27.5,27.5,0,0,0,0,55,27.92,27.92,0,0,0,5.68-.59c1.86,14.93,17.86,26.59,37.32,26.59a46.59,46.59,0,0,0,12-1.56c3.41,19,22.92,33.56,46.47,33.56,22.88,0,41.93-13.74,46.13-31.94A46.41,46.41,0,0,0,1753,343.5c20.65,0,37.39-13.13,37.5-29.35a27.5,27.5,0,1,0,8.5-53.65Z"/><path class="cls-16" d="M1695.5,203.5c-16.09,0-29.42,14.56-31.75,33.56a22.46,22.46,0,0,0-8.22-1.56c-13.15,0-24,11.42-25.44,26.12a13.26,13.26,0,0,0-5.3-1.12c-10.38,0-18.79,12.31-18.79,27.5s8.41,27.5,18.79,27.5a13.31,13.31,0,0,0,3.88-.59c1.27,14.93,12.2,26.59,25.5,26.59a22.53,22.53,0,0,0,8.22-1.56c2.32,19,15.65,33.56,31.74,33.56.46,0,.92,0,1.37,0Z"/><path class="cls-17" d="M1695.5,374.5c16.09,0,29.42-14.56,31.75-33.56a22.46,22.46,0,0,0,8.22,1.56c13.15,0,24-11.42,25.44-26.12a13.26,13.26,0,0,0,5.3,1.12c10.38,0,18.79-12.31,18.79-27.5s-8.41-27.5-18.79-27.5a13.31,13.31,0,0,0-3.88.59c-1.27-14.93-12.2-26.59-25.5-26.59a22.53,22.53,0,0,0-8.22,1.56c-2.32-19-15.65-33.56-31.74-33.56-.46,0-.92,0-1.37,0Z"/></g><g id="Feedback"><g id="_1_Burg-3" data-name="1_Burg"><g id="Ja"><line class="cls-18" x1="1618.5" y1="628" x2="1618.5" y2="209.5"/><polyline class="cls-19" points="1618.5 226.5 1164 226.5 1238.31 340.5 1164 455.5 1618.5 455.5 1618.5 226.5"/><text class="cls-20" transform="translate(1287.5 301.83)"><tspan class="cls-21">V</tspan><tspan x="29.81" y="0">oll</tspan><tspan x="88.59" y="0">treffer!</tspan></text><text class="cls-23" transform="translate(1288.5 355.3)">Du hast die optimale <tspan x="0" y="31.2">Flugbahn gewählt. </tspan><tspan x="0" y="62.4">Gr</tspan><tspan class="cls-24" x="29.51" y="62.4">a</tspan><tspan x="43.16" y="62.4">tul</tspan><tspan class="cls-24" x="74.91" y="62.4">ation!</tspan></text><g id="_1_Burg-4" data-name="1_Burg"><polygon class="cls-25" points="1617.5 495.5 1557.5 599.5 1617.5 585.5 1617.5 495.5"/><polygon class="cls-10" points="1617.5 495.5 1678.5 597.5 1617.5 585.5 1617.5 495.5"/><polygon class="cls-7" points="1557.5 599.5 1589.5 646.5 1617.5 614.5 1617.5 585.5 1557.5 599.5"/><polygon class="cls-8" points="1678.5 597.5 1617.5 585.5 1617.5 614.5 1646.5 646.5 1678.5 597.5"/><polygon class="cls-25" points="1617.5 614.5 1589.5 646.5 1617.5 646.5 1617.5 614.5"/><polygon class="cls-10" points="1617.5 614.5 1617.5 646.5 1646.5 646.5 1617.5 614.5"/><polyline class="cls-7" points="1617.5 770.5 1538.5 770.5 1567.5 698.5 1579.5 681.5 1617.5 681.5"/><polygon class="cls-8" points="1618 770.5 1697 770.5 1668 698.5 1656 681.5 1618 681.5 1618 770.5"/><polygon class="cls-7" points="1617.5 646.5 1589.5 646.5 1589.5 687.5 1617.5 694.5 1617.5 646.5"/><polygon class="cls-8" points="1617.5 646.5 1617.5 694.5 1646.5 687.5 1646.5 646.5 1617.5 646.5"/><polygon class="cls-25" points="1589.5 687.5 1617.5 713.5 1617.5 694.5 1589.5 687.5"/><polygon class="cls-10" points="1617.5 694.5 1646.5 687.5 1617.5 713.5 1617.5 694.5"/><polygon class="cls-7" points="1523.05 672.5 1527.5 656.5 1566.5 656.5 1572.69 672.5 1572.5 681.5 1523.5 681.5 1523.05 672.5"/><polygon class="cls-8" points="1549.95 742.08 1574.5 681.5 1519.5 681.5 1549.95 742.08"/><polygon class="cls-25" points="1579.5 681.5 1579.5 672.5 1554.5 672.5 1554.5 681.5 1567.5 698.5 1579.5 681.5"/><polygon class="cls-25" points="1540.5 672.5 1514.5 672.5 1514.5 681.5 1527.5 697.5 1540.5 681.5 1540.5 672.5"/><polygon class="cls-8" points="1712.95 673.5 1708.5 657.5 1669.5 657.5 1663.31 673.5 1663.5 682.5 1712.5 682.5 1712.95 673.5"/><polygon class="cls-9" points="1686.05 743.08 1661.5 682.5 1716.5 682.5 1686.05 743.08"/><polygon class="cls-10" points="1656.5 682.5 1656.5 673.5 1681.5 673.5 1681.5 682.5 1668.5 699.5 1656.5 682.5"/><polygon class="cls-10" points="1695.5 673.5 1721.5 673.5 1721.5 682.5 1708.5 698.5 1695.5 682.5 1695.5 673.5"/><line class="cls-7" x1="1617.5" y1="681.5" x2="1617.5" y2="770.5"/><rect class="cls-25" x="1520.5" y="646.5" width="12" height="15"/><rect class="cls-25" x="1541" y="646.5" width="12" height="15"/><rect class="cls-25" x="1561.5" y="646.5" width="12" height="15"/><rect class="cls-10" x="1662.5" y="646.5" width="12" height="15"/><rect class="cls-10" x="1683" y="646.5" width="12" height="15"/><rect class="cls-10" x="1703.5" y="646.5" width="12" height="15"/></g></g><g id="Nein"><line class="cls-18" x1="1618.5" y1="628" x2="1618.5" y2="209.5"/><polyline class="cls-26" points="1618.5 226.5 1164 226.5 1238.31 340.5 1164 455.5 1618.5 455.5 1618.5 226.5"/><text class="cls-27" transform="translate(1287.5 301.83)">You missed!</text><text class="cls-28" transform="translate(1288.5 355.3)">You have to refine the parameters.<tspan x="0" y="31.2"></tspan><tspan class="cls-29" x="200.12" y="31.2">r</tspan><tspan x="209.79" y="31.2">en.</tspan><tspan class="cls-30" x="0" y="62.4">V</tspan><tspan x="15.65" y="62.4">Try Again!</tspan></text><g id="_1_Burg-5" data-name="1_Burg"><polygon class="cls-5" points="1617.5 495.5 1557.5 599.5 1617.5 585.5 1617.5 495.5"/><polygon class="cls-6" points="1617.5 495.5 1678.5 597.5 1617.5 585.5 1617.5 495.5"/><polygon class="cls-7" points="1557.5 599.5 1589.5 646.5 1617.5 614.5 1617.5 585.5 1557.5 599.5"/><polygon class="cls-8" points="1678.5 597.5 1617.5 585.5 1617.5 614.5 1646.5 646.5 1678.5 597.5"/><polygon class="cls-5" points="1617.5 614.5 1589.5 646.5 1617.5 646.5 1617.5 614.5"/><polygon class="cls-6" points="1617.5 614.5 1617.5 646.5 1646.5 646.5 1617.5 614.5"/><polyline class="cls-7" points="1617.5 770.5 1538.5 770.5 1567.5 698.5 1579.5 681.5 1617.5 681.5"/><polygon class="cls-8" points="1618 770.5 1697 770.5 1668 698.5 1656 681.5 1618 681.5 1618 770.5"/><polygon class="cls-7" points="1617.5 646.5 1589.5 646.5 1589.5 687.5 1617.5 694.5 1617.5 646.5"/><polygon class="cls-8" points="1617.5 646.5 1617.5 694.5 1646.5 687.5 1646.5 646.5 1617.5 646.5"/><polygon class="cls-5" points="1589.5 687.5 1617.5 713.5 1617.5 694.5 1589.5 687.5"/><polygon class="cls-6" points="1617.5 694.5 1646.5 687.5 1617.5 713.5 1617.5 694.5"/><polygon class="cls-7" points="1523.05 672.5 1527.5 656.5 1566.5 656.5 1572.69 672.5 1572.5 681.5 1523.5 681.5 1523.05 672.5"/><polygon class="cls-8" points="1549.95 742.08 1574.5 681.5 1519.5 681.5 1549.95 742.08"/><polygon class="cls-5" points="1579.5 681.5 1579.5 672.5 1554.5 672.5 1554.5 681.5 1567.5 698.5 1579.5 681.5"/><polygon class="cls-5" points="1540.5 672.5 1514.5 672.5 1514.5 681.5 1527.5 697.5 1540.5 681.5 1540.5 672.5"/><polygon class="cls-8" points="1712.95 673.5 1708.5 657.5 1669.5 657.5 1663.31 673.5 1663.5 682.5 1712.5 682.5 1712.95 673.5"/><polygon class="cls-9" points="1686.05 743.08 1661.5 682.5 1716.5 682.5 1686.05 743.08"/><polygon class="cls-6" points="1656.5 682.5 1656.5 673.5 1681.5 673.5 1681.5 682.5 1668.5 699.5 1656.5 682.5"/><polygon class="cls-6" points="1695.5 673.5 1721.5 673.5 1721.5 682.5 1708.5 698.5 1695.5 682.5 1695.5 673.5"/><line class="cls-7" x1="1617.5" y1="681.5" x2="1617.5" y2="770.5"/><rect class="cls-5" x="1520.5" y="646.5" width="12" height="15"/><rect class="cls-5" x="1541" y="646.5" width="12" height="15"/><rect class="cls-5" x="1561.5" y="646.5" width="12" height="15"/><rect class="cls-6" x="1662.5" y="646.5" width="12" height="15"/><rect class="cls-6" x="1683" y="646.5" width="12" height="15"/><rect class="cls-6" x="1703.5" y="646.5" width="12" height="15"/></g></g></g></g></svg>