<svg xmlns="http://www.w3.org/2000/svg" xmlns:xlink="http://www.w3.org/1999/xlink" viewBox="0 0 1920 1080"><defs><style>.cls-1{fill:url(#Unbenannter_Verlauf_30);}.cls-2,.cls-23,.cls-30,.cls-31{fill:#fff;}.cls-3{fill:#2a7d9e;opacity:0.6;}.cls-14,.cls-15,.cls-16,.cls-17,.cls-23,.cls-29,.cls-3,.cls-4,.cls-5{stroke:#fff;}.cls-10,.cls-11,.cls-12,.cls-13,.cls-14,.cls-15,.cls-16,.cls-17,.cls-18,.cls-19,.cls-20,.cls-21,.cls-22,.cls-23,.cls-29,.cls-3,.cls-34,.cls-4,.cls-5,.cls-6,.cls-7,.cls-8,.cls-9{stroke-miterlimit:10;}.cls-4{fill:#279cb7;}.cls-4,.cls-5{opacity:0.5;}.cls-5{fill:#19bbc1;}.cls-6{fill:#b71530;}.cls-6,.cls-7,.cls-8,.cls-9{stroke:#fc95e1;}.cls-7{fill:#dd2f4c;}.cls-8{fill:#f72b44;}.cls-9{fill:#840f28;}.cls-10{fill:#eaea34;}.cls-10,.cls-18,.cls-19,.cls-20,.cls-21,.cls-22{stroke:#f4f2c9;}.cls-11{fill:#c6c6c6;}.cls-11,.cls-12{stroke:#b5b5b5;}.cls-12{fill:#7a7a7a;}.cls-13,.cls-34{stroke:#000;}.cls-13,.cls-14{stroke-width:3px;}.cls-13{fill:url(#Unbenannter_Verlauf_30-2);}.cls-14,.cls-34{fill:none;}.cls-15{fill:#ededed;}.cls-16{fill:#d8d8d8;}.cls-17{fill:#f9f9f9;}.cls-18{fill:#c1b51e;}.cls-19{fill:#f7f297;}.cls-20{fill:#7a7016;}.cls-21{fill:#a5971b;}.cls-22{fill:#ede77c;}.cls-24,.cls-30{font-size:46px;font-family:MuseoSans-900, Museo Sans;}.cls-25{letter-spacing:-0.03em;}.cls-26{letter-spacing:0em;}.cls-27,.cls-31{font-size:26px;font-family:MuseoSans-500, Museo Sans;}.cls-28{letter-spacing:0em;}.cls-29{fill:#050505;}.cls-32{letter-spacing:0em;}.cls-33{letter-spacing:-0.03em;}.cls-34{stroke-width:8px;}</style><linearGradient id="Unbenannter_Verlauf_30" x1="960" x2="960" y2="1080" gradientUnits="userSpaceOnUse"><stop offset="0" stop-color="#00143f"/><stop offset="0.1" stop-color="#001d48"/><stop offset="0.27" stop-color="#00375f"/><stop offset="0.49" stop-color="#006084"/><stop offset="0.57" stop-color="#007194"/><stop offset="0.87" stop-color="#006994"/><stop offset="0.99" stop-color="#005894"/></linearGradient><linearGradient id="Unbenannter_Verlauf_30-2" x1="153" y1="820.5" x2="328" y2="820.5" gradientTransform="translate(0.1 0)" xlink:href="#Unbenannter_Verlauf_30"/></defs><title>Wellen</title><g id="Background"><g id="_1_Welle" data-name="1_Welle"><rect class="cls-1" width="1920" height="1080"/></g></g><g id="Sterne"><g id="_1_Welle-2" data-name="1_Welle"><path class="cls-2" d="M187.18,205.05a1.5,1.5,0,0,0,0-3,1.5,1.5,0,0,0,0,3Z"/><path class="cls-2" d="M462.94,171.71a1.5,1.5,0,0,0,0-3,1.5,1.5,0,0,0,0,3Z"/><path class="cls-2" d="M532.64,280.8a1.5,1.5,0,0,0,0-3,1.5,1.5,0,0,0,0,3Z"/><path class="cls-2" d="M847.79,141.41a1.5,1.5,0,0,0,0-3,1.5,1.5,0,0,0,0,3Z"/><path class="cls-2" d="M1072,238.38a1.5,1.5,0,0,0,0-3,1.5,1.5,0,0,0,0,3Z"/><path class="cls-2" d="M1290.21,144.44a1.5,1.5,0,0,0,0-3,1.5,1.5,0,0,0,0,3Z"/><path class="cls-2" d="M1490.21,217.17a1.5,1.5,0,0,0,0-3,1.5,1.5,0,0,0,0,3Z"/><path class="cls-2" d="M1593.24,371.71a1.5,1.5,0,0,0,0-3,1.5,1.5,0,0,0,0,3Z"/><path class="cls-2" d="M1732.64,241.41a1.5,1.5,0,0,0,0-3,1.5,1.5,0,0,0,0,3Z"/><path class="cls-2" d="M1496.27,47.47a1.5,1.5,0,0,0,0-3,1.5,1.5,0,0,0,0,3Z"/><path class="cls-2" d="M1320.52,35.35a1.5,1.5,0,0,0,0-3,1.5,1.5,0,0,0,0,3Z"/><path class="cls-2" d="M781.12,35.35a1.5,1.5,0,0,0,0-3,1.5,1.5,0,0,0,0,3Z"/><path class="cls-2" d="M641.73,177.77a1.5,1.5,0,0,0,0-3,1.5,1.5,0,0,0,0,3Z"/><path class="cls-2" d="M405.36,5.05a1.5,1.5,0,0,0,0-3,1.5,1.5,0,0,0,0,3Z"/><path class="cls-2" d="M147.79,86.86a1.5,1.5,0,0,0,0-3,1.5,1.5,0,0,0,0,3Z"/><path class="cls-2" d="M372,177.77a1.5,1.5,0,0,0,0-3,1.5,1.5,0,0,0,0,3Z"/><path class="cls-2" d="M56.88,371.71a1.5,1.5,0,0,0,0-3,1.5,1.5,0,0,0,0,3Z"/><path class="cls-2" d="M1769,59.59a1.5,1.5,0,0,0,0-3,1.5,1.5,0,0,0,0,3Z"/><path class="cls-2" d="M238.7,97.45c3.86,0,3.86-6,0-6s-3.87,6,0,6Z"/><path class="cls-2" d="M362.94,227.76c3.86,0,3.87-6,0-6s-3.87,6,0,6Z"/><path class="cls-2" d="M717.48,127.76c3.87,0,3.87-6,0-6s-3.86,6,0,6Z"/><path class="cls-2" d="M1287.18,33.82c3.86,0,3.87-6,0-6s-3.87,6,0,6Z"/><path class="cls-2" d="M1402.33,249c3.86,0,3.87-6,0-6s-3.86,6,0,6Z"/><path class="cls-2" d="M1826.58,94.42c3.86,0,3.86-6,0-6s-3.87,6,0,6Z"/><path class="cls-2" d="M472,23.2c5.79,0,5.8-9,0-9s-5.8,9,0,9Z"/><path class="cls-2" d="M1072,92.89c5.79,0,5.8-9,0-9s-5.8,9,0,9Z"/><path class="cls-2" d="M20.52,129.26c5.79,0,5.8-9,0-9s-5.81,9,0,9Z"/><path class="cls-2" d="M381.12,33.79c7.72,0,7.74-12,0-12s-7.73,12,0,12Z"/><path class="cls-2" d="M126.58,83.83a1.5,1.5,0,0,0,0-3,1.5,1.5,0,0,0,0,3Z"/><path class="cls-2" d="M56.88,111.11a1.5,1.5,0,0,0,0-3,1.5,1.5,0,0,0,0,3Z"/><path class="cls-2" d="M835.67,180.8a1.5,1.5,0,0,0,0-3,1.5,1.5,0,0,0,0,3Z"/><path class="cls-2" d="M1081.12,59.59a1.5,1.5,0,0,0,0-3,1.5,1.5,0,0,0,0,3Z"/><path class="cls-2" d="M1299.3,77a.75.75,0,0,0,0-1.5.75.75,0,0,0,0,1.5Z"/><path class="cls-2" d="M1590.21,128.54a.75.75,0,0,0,0-1.5.75.75,0,0,0,0,1.5Z"/><path class="cls-2" d="M643.31,155.31a1.5,1.5,0,0,0,0-3,1.5,1.5,0,0,0,0,3Z"/><path class="cls-2" d="M449.28,197.3a1.5,1.5,0,0,0,0-3,1.5,1.5,0,0,0,0,3Z"/><path class="cls-2" d="M423.21,143.72a1.5,1.5,0,0,0,0-3,1.5,1.5,0,0,0,0,3Z"/><path class="cls-2" d="M1104.48,69.85a1.5,1.5,0,0,0,0-3,1.5,1.5,0,0,0,0,3Z"/><path class="cls-2" d="M637.89,20.53a1.13,1.13,0,0,0,0-2.25,1.13,1.13,0,0,0,0,2.25Z"/><path class="cls-2" d="M956.65,100.73a1.13,1.13,0,0,0,0-2.25,1.13,1.13,0,0,0,0,2.25Z"/><path class="cls-2" d="M1016.79,104.74a1.13,1.13,0,0,0,0-2.25,1.13,1.13,0,0,0,0,2.25Z"/><path class="cls-2" d="M1409.74,104.74a1.13,1.13,0,0,0,0-2.25,1.13,1.13,0,0,0,0,2.25Z"/><path class="cls-2" d="M1710.46,88.7a1.13,1.13,0,0,0,0-2.25,1.13,1.13,0,0,0,0,2.25Z"/><path class="cls-2" d="M1872.85,52.61a1.13,1.13,0,0,0,0-2.25,1.13,1.13,0,0,0,0,2.25Z"/><path class="cls-2" d="M966.67,14.52a1.13,1.13,0,0,0,0-2.25,1.13,1.13,0,0,0,0,2.25Z"/></g></g><g id="Wellen"><path class="cls-3" d="M-36.5,712.5s103,85,338,85,691-243,1007-243,346,121,502,121,235-108,235-108v622H-36.5Z"/><path class="cls-4" d="M-36.5,810.5s65-96,277-96,366,115,477,115,175-72,286-72,157,184,346,184,193-227,391-227,264,174,264,174v269H-36.5Z"/><path class="cls-5" d="M2045.5,915.57s-41-118.57-94-118.57c-235.42,0-177.77,118.57-301,118.57s-101-81.87-224.32-81.87S986.7,1014.38,776.82,1014.38,540.29,851.77,320.41,851.77-30.5,959.61-30.5,959.61V1111.5h2076Z"/></g><g id="Schiff"><g id="_1_Welle-3" data-name="1_Welle"><polygon class="cls-6" points="1310.5 757.5 1407.5 789.5 1395.5 803.5 1310.5 757.5"/><polygon class="cls-7" points="1352.5 849.5 1310.5 757.5 1395.35 803.78 1442.5 829.5 1418.5 849.5 1352.5 849.5"/><polygon class="cls-8" points="1534.5 752.5 1418.5 849.5 1490.5 849.5 1534.5 752.5"/><polygon class="cls-9" points="1534.5 752.5 1442.5 785.18 1466.5 809.5 1534.5 752.5"/><polygon class="cls-9" points="1425.5 768.5 1395.5 803.5 1442.5 829.5 1466.5 809.5 1425.5 768.5"/><path class="cls-6" d="M1424.6,769.55l-29.1,34,30,16.73V769.88A.51.51,0,0,0,1424.6,769.55Z"/></g></g><g id="Flugobjekt"><g id="_1_Welle-4" data-name="1_Welle"><circle class="cls-10" cx="567.5" cy="561.5" r="35"/></g></g><g id="Abflug"><rect class="cls-11" x="188.54" y="660.06" width="71.8" height="349.53" rx="19.6" ry="19.6" transform="translate(696.22 110.45) rotate(48.12)"/><rect class="cls-12" x="230.09" y="679.01" width="22.49" height="349.34" transform="translate(715.88 104.13) rotate(48.12)"/><line class="cls-13" x1="153.1" y1="820.5" x2="328.1" y2="820.5"/><circle class="cls-14" cx="240.74" cy="820.21" r="87.5"/><line class="cls-14" x1="175.87" y1="878.93" x2="306.27" y2="762.24"/></g><g id="Wolken"><path class="cls-15" d="M435,125.5a27.43,27.43,0,0,0-6.57.8C427.31,110.8,411,98.5,391,98.5a46.41,46.41,0,0,0-13.37,1.94c-4.2-18.2-23.25-31.94-46.13-31.94C308,68.5,288.44,83.06,285,102.06a46.59,46.59,0,0,0-12-1.56c-19.25,0-35.11,11.42-37.25,26.12A27.2,27.2,0,0,0,228,125.5a27.5,27.5,0,0,0,0,55,27.92,27.92,0,0,0,5.68-.59c1.86,14.93,17.86,26.59,37.32,26.59a46.59,46.59,0,0,0,12-1.56c3.41,19,22.92,33.56,46.47,33.56,22.88,0,41.93-13.74,46.13-31.94A46.41,46.41,0,0,0,389,208.5c20.65,0,37.39-13.13,37.5-29.35A27.5,27.5,0,1,0,435,125.5Z"/><path class="cls-16" d="M331.5,68.5c-16.09,0-29.42,14.56-31.75,33.56a22.46,22.46,0,0,0-8.22-1.56c-13.15,0-24,11.42-25.44,26.12a13.26,13.26,0,0,0-5.3-1.12C250.41,125.5,242,137.81,242,153s8.41,27.5,18.79,27.5a13.31,13.31,0,0,0,3.88-.59c1.27,14.93,12.2,26.59,25.5,26.59a22.53,22.53,0,0,0,8.22-1.56c2.32,19,15.65,33.56,31.74,33.56.46,0,.92,0,1.37,0Z"/><path class="cls-17" d="M331.5,239.5c16.09,0,29.42-14.56,31.75-33.56a22.46,22.46,0,0,0,8.22,1.56c13.15,0,24-11.42,25.44-26.12a13.26,13.26,0,0,0,5.3,1.12c10.38,0,18.79-12.31,18.79-27.5s-8.41-27.5-18.79-27.5a13.31,13.31,0,0,0-3.88.59c-1.27-14.93-12.2-26.59-25.5-26.59a22.53,22.53,0,0,0-8.22,1.56c-2.32-19-15.65-33.56-31.74-33.56-.46,0-.92,0-1.37,0Z"/><path class="cls-15" d="M1108,162.5a27.43,27.43,0,0,0-6.57.8c-1.12-15.5-17.45-27.8-37.43-27.8a46.41,46.41,0,0,0-13.37,1.94c-4.2-18.2-23.25-31.94-46.13-31.94-23.55,0-43.06,14.56-46.47,33.56a46.59,46.59,0,0,0-12-1.56c-19.25,0-35.11,11.42-37.25,26.12A27.2,27.2,0,0,0,901,162.5a27.5,27.5,0,0,0,0,55,27.92,27.92,0,0,0,5.68-.59c1.86,14.93,17.86,26.59,37.32,26.59a46.59,46.59,0,0,0,12-1.56c3.41,19,22.92,33.56,46.47,33.56,22.88,0,41.93-13.74,46.13-31.94A46.41,46.41,0,0,0,1062,245.5c20.65,0,37.39-13.13,37.5-29.35a27.5,27.5,0,1,0,8.5-53.65Z"/><path class="cls-16" d="M1004.5,105.5c-16.09,0-29.42,14.56-31.75,33.56a22.46,22.46,0,0,0-8.22-1.56c-13.15,0-24,11.42-25.44,26.12a13.26,13.26,0,0,0-5.3-1.12C923.41,162.5,915,174.81,915,190s8.41,27.5,18.79,27.5a13.31,13.31,0,0,0,3.88-.59c1.27,14.93,12.2,26.59,25.5,26.59a22.53,22.53,0,0,0,8.22-1.56c2.32,19,15.65,33.56,31.74,33.56.46,0,.92,0,1.37,0Z"/><path class="cls-17" d="M1004.5,276.5c16.09,0,29.42-14.56,31.75-33.56a22.46,22.46,0,0,0,8.22,1.56c13.15,0,24-11.42,25.44-26.12a13.26,13.26,0,0,0,5.3,1.12c10.38,0,18.79-12.31,18.79-27.5s-8.41-27.5-18.79-27.5a13.31,13.31,0,0,0-3.88.59c-1.27-14.93-12.2-26.59-25.5-26.59a22.53,22.53,0,0,0-8.22,1.56c-2.32-19-15.65-33.56-31.74-33.56-.46,0-.92,0-1.37,0Z"/><path class="cls-15" d="M1799,260.5a27.43,27.43,0,0,0-6.57.8c-1.12-15.5-17.45-27.8-37.43-27.8a46.41,46.41,0,0,0-13.37,1.94c-4.2-18.2-23.25-31.94-46.13-31.94-23.55,0-43.06,14.56-46.47,33.56a46.59,46.59,0,0,0-12-1.56c-19.25,0-35.11,11.42-37.25,26.12a27.2,27.2,0,0,0-7.75-1.12,27.5,27.5,0,0,0,0,55,27.92,27.92,0,0,0,5.68-.59c1.86,14.93,17.86,26.59,37.32,26.59a46.59,46.59,0,0,0,12-1.56c3.41,19,22.92,33.56,46.47,33.56,22.88,0,41.93-13.74,46.13-31.94A46.41,46.41,0,0,0,1753,343.5c20.65,0,37.39-13.13,37.5-29.35a27.5,27.5,0,1,0,8.5-53.65Z"/><path class="cls-16" d="M1695.5,203.5c-16.09,0-29.42,14.56-31.75,33.56a22.46,22.46,0,0,0-8.22-1.56c-13.15,0-24,11.42-25.44,26.12a13.26,13.26,0,0,0-5.3-1.12c-10.38,0-18.79,12.31-18.79,27.5s8.41,27.5,18.79,27.5a13.31,13.31,0,0,0,3.88-.59c1.27,14.93,12.2,26.59,25.5,26.59a22.53,22.53,0,0,0,8.22-1.56c2.32,19,15.65,33.56,31.74,33.56.46,0,.92,0,1.37,0Z"/><path class="cls-17" d="M1695.5,374.5c16.09,0,29.42-14.56,31.75-33.56a22.46,22.46,0,0,0,8.22,1.56c13.15,0,24-11.42,25.44-26.12a13.26,13.26,0,0,0,5.3,1.12c10.38,0,18.79-12.31,18.79-27.5s-8.41-27.5-18.79-27.5a13.31,13.31,0,0,0-3.88.59c-1.27-14.93-12.2-26.59-25.5-26.59a22.53,22.53,0,0,0-8.22,1.56c-2.32-19-15.65-33.56-31.74-33.56-.46,0-.92,0-1.37,0Z"/></g><g id="Feedback"><g id="_1_Welle-5" data-name="1_Welle"><g id="Ja"><g id="_1_Welle-6" data-name="1_Welle"><polygon class="cls-18" points="1310.5 757.5 1407.5 789.5 1395.5 803.5 1310.5 757.5"/><polygon class="cls-19" points="1352.5 849.5 1310.5 757.5 1395.35 803.78 1442.5 829.5 1418.5 849.5 1352.5 849.5"/><polygon class="cls-10" points="1534.5 752.5 1418.5 849.5 1490.5 849.5 1534.5 752.5"/><polygon class="cls-20" points="1534.5 752.5 1442.5 785.18 1466.5 809.5 1534.5 752.5"/><polygon class="cls-21" points="1425.5 768.5 1395.5 803.5 1442.5 829.5 1466.5 809.5 1425.5 768.5"/><path class="cls-22" d="M1424.6,769.55l-29.1,34,30,16.73V769.88A.51.51,0,0,0,1424.6,769.55Z"/></g><polyline class="cls-23" points="1395.5 434.5 941 434.5 1015.31 548.5 941 663.5 1395.5 663.5 1395.5 434.5"/><text class="cls-24" transform="translate(1064.5 509.83)"><tspan class="cls-25">V</tspan><tspan x="29.81" y="0">ol</tspan><tspan class="cls-26" x="73.92" y="0">l</tspan><tspan x="88.59" y="0">treffer!</tspan></text><text class="cls-27" transform="translate(1065.5 563.3)">Du hast die optimale <tspan x="0" y="31.2">Flugbahn gewählt. </tspan><tspan x="0" y="62.4">Gr</tspan><tspan class="cls-28" x="29.51" y="62.4">a</tspan><tspan x="43.16" y="62.4">tul</tspan><tspan class="cls-28" x="74.91" y="62.4">a</tspan><tspan x="88.56" y="62.4">tion!</tspan></text></g><g id="Nein"><polyline class="cls-29" points="1395.5 434.5 941 434.5 1015.31 548.5 941 663.5 1395.5 663.5 1395.5 434.5"/><text class="cls-30" transform="translate(1064.5 509.83)">Daneben!</text><text class="cls-31" transform="translate(1065.5 563.3)">Da musst du noch <tspan x="0" y="31.2">etwas nachjustie</tspan><tspan class="cls-32" x="200.12" y="31.2">r</tspan><tspan x="209.79" y="31.2">en.</tspan><tspan class="cls-33" x="0" y="62.4">V</tspan><tspan x="15.65" y="62.4">ersuchs erneut!</tspan></text><g id="_1_Welle-7" data-name="1_Welle"><polygon class="cls-6" points="1310.5 757.5 1407.5 789.5 1395.5 803.5 1310.5 757.5"/><line class="cls-34" x1="1395.5" y1="836" x2="1395.5" y2="417.5"/><polygon class="cls-7" points="1352.5 849.5 1310.5 757.5 1395.35 803.78 1442.5 829.5 1418.5 849.5 1352.5 849.5"/><polygon class="cls-8" points="1534.5 752.5 1418.5 849.5 1490.5 849.5 1534.5 752.5"/><polygon class="cls-9" points="1534.5 752.5 1442.5 785.18 1466.5 809.5 1534.5 752.5"/><polygon class="cls-9" points="1425.5 768.5 1395.5 803.5 1442.5 829.5 1466.5 809.5 1425.5 768.5"/><path class="cls-6" d="M1424.6,769.55l-29.1,34,30,16.73V769.88A.51.51,0,0,0,1424.6,769.55Z"/></g></g></g></g></svg>