<svg xmlns="http://www.w3.org/2000/svg" viewBox="0 0 263 172"><defs><style>.cls-1{fill:#ededed;}.cls-1,.cls-2,.cls-3{stroke:#fff;stroke-miterlimit:10;}.cls-2{fill:#d8d8d8;}.cls-3{fill:#f9f9f9;}</style></defs><title>Element 12</title><g id="Ebene_2" data-name="Ebene 2"><g id="Wolken"><path class="cls-1" d="M235,57.5a27.43,27.43,0,0,0-6.57.8C227.31,42.8,211,30.5,191,30.5a46.41,46.41,0,0,0-13.37,1.94C173.43,14.24,154.38.5,131.5.5,108,.5,88.44,15.06,85,34.06A46.59,46.59,0,0,0,73,32.5c-19.25,0-35.11,11.42-37.25,26.12A27.2,27.2,0,0,0,28,57.5a27.5,27.5,0,0,0,0,55,27.92,27.92,0,0,0,5.68-.59C35.54,126.84,51.54,138.5,71,138.5a46.59,46.59,0,0,0,12-1.56c3.41,19,22.92,33.56,46.47,33.56,22.88,0,41.93-13.74,46.13-31.94A46.41,46.41,0,0,0,189,140.5c20.65,0,37.39-13.13,37.5-29.35A27.5,27.5,0,1,0,235,57.5Z"/><path class="cls-2" d="M131.5.5c-16.09,0-29.42,14.56-31.75,33.56a22.46,22.46,0,0,0-8.22-1.56c-13.15,0-24,11.42-25.44,26.12a13.26,13.26,0,0,0-5.3-1.12C50.41,57.5,42,69.81,42,85s8.41,27.5,18.79,27.5a13.31,13.31,0,0,0,3.88-.59c1.27,14.93,12.2,26.59,25.5,26.59a22.53,22.53,0,0,0,8.22-1.56c2.32,19,15.65,33.56,31.74,33.56.46,0,.92,0,1.37,0Z"/><path class="cls-3" d="M131.5,171.5c16.09,0,29.42-14.56,31.75-33.56a22.46,22.46,0,0,0,8.22,1.56c13.15,0,24-11.42,25.44-26.12a13.26,13.26,0,0,0,5.3,1.12C212.59,114.5,221,102.19,221,87s-8.41-27.5-18.79-27.5a13.31,13.31,0,0,0-3.88.59c-1.27-14.93-12.2-26.59-25.5-26.59a22.53,22.53,0,0,0-8.22,1.56C162.29,16.06,149,1.5,132.87,1.5c-.46,0-.92,0-1.37,0Z"/></g></g></svg>